<svg xmlns="http://www.w3.org/2000/svg" viewBox="0 0 1200 1200" width="1200" height="1200" role="img" aria-label="Synthetic wool camp blanket"><rect width="1200" height="1200" fill="#f1eee7"/><ellipse cx="600" cy="830" rx="350" ry="40" fill="#dfdad0"/><path d="M300 270h600l-45 490H345z" fill="#a15d47"/><path d="M310 380h580M330 580h540" stroke="#e6d1a7" stroke-width="65"/><path d="M400 280l35 475M720 280l-30 475" stroke="#514d45" stroke-width="38"/><path d="M340 770v50m50-50v50m50-50v50m50-50v50m50-50v50m50-50v50m50-50v50m50-50v50m50-50v50m50-50v50m50-50v50" stroke="#e6d1a7" stroke-width="14"/></svg>
